inDegrees=no
num_controls=7
num_derivatives=13
num_iterations=148
num_multipliers=7
num_parameters=0
num_slacks=7
num_states=26
objective=0.448254
objective_accelerations=0.048888
objective_balance=0.007294
objective_effort=0.036155
objective_height=0.350978
objective_ligament=0.004940
solver_duration=2124.274434
status=Solve_Succeeded
success=true
DataType=double
version=3
OpenSimVersion=4.5
endheader
time	/jointset/ground_pelvis/pelvis_tilt/value	/jointset/ground_pelvis/pelvis_tx/value	/jointset/ground_pelvis/pelvis_ty/value	/jointset/hip_l/hip_flexion_l/value	/jointset/hip_l/hip_adduction_l/value	/jointset/hip_l/hip_rotation_l/value	/jointset/back/lumbar_extension/value	/jointset/patellofemoral_l/patellar_flexion_l/value	/jointset/knee_l/knee_flexion_l/value	/jointset/knee_l/knee_adduction_l/value	/jointset/knee_l/knee_rotation_l/value	/jointset/ankle_l/ankle_angle_l/value	/jointset/subtalar_l/subtalar_angle_l/value	/jointset/ground_pelvis/pelvis_tilt/speed	/jointset/ground_pelvis/pelvis_tx/speed	/jointset/ground_pelvis/pelvis_ty/speed	/jointset/hip_l/hip_flexion_l/speed	/jointset/hip_l/hip_adduction_l/speed	/jointset/hip_l/hip_rotation_l/speed	/jointset/back/lumbar_extension/speed	/jointset/patellofemoral_l/patellar_flexion_l/speed	/jointset/knee_l/knee_flexion_l/speed	/jointset/knee_l/knee_adduction_l/speed	/jointset/knee_l/knee_rotation_l/speed	/jointset/ankle_l/ankle_angle_l/speed	/jointset/subtalar_l/subtalar_angle_l/speed	/forceset/tau_hip_flexion_l	/forceset/tau_hip_adduction_l	/forceset/tau_hip_rotation_l	/forceset/tau_knee_flexion_l	/forceset/tau_ankle_angle_l	/forceset/tau_subtalar_angle_l	/forceset/tau_lumbar_extension	lambda_cid13_p0	lambda_cid13_p1	lambda_cid13_p2	lambda_cid13_p3	lambda_cid13_p4	lambda_cid13_p5	lambda_cid14_p0	/jointset/ground_pelvis/pelvis_tilt/accel	/jointset/ground_pelvis/pelvis_tx/accel	/jointset/ground_pelvis/pelvis_ty/accel	/jointset/hip_l/hip_flexion_l/accel	/jointset/hip_l/hip_adduction_l/accel	/jointset/hip_l/hip_rotation_l/accel	/jointset/back/lumbar_extension/accel	/jointset/patellofemoral_l/patellar_flexion_l/accel	/jointset/knee_l/knee_flexion_l/accel	/jointset/knee_l/knee_adduction_l/accel	/jointset/knee_l/knee_rotation_l/accel	/jointset/ankle_l/ankle_angle_l/accel	/jointset/subtalar_l/subtalar_angle_l/accel	gamma_cid13_p0	gamma_cid13_p1	gamma_cid13_p2	gamma_cid13_p3	gamma_cid13_p4	gamma_cid13_p5	gamma_cid14_p0
1.5	-0.4464149055296224	-0.07267009136981076	0.7630068256895484	1.265001924958787	-0.3096733858918291	-0.04476149259253511	-0.3458659803939104	0.6921952084294273	0.6921952084294212	-0.1731332909261528	0.174196126354391	0.04006159106700986	-0.04843060205109277	0.7255266391783742	0.257370165489212	0.4869588492450663	-2.326106414159123	0.03140937136124378	-0.6103789884470741	0.5637864100019059	-1.753841924038161	-1.753841924038293	0.005776170684999703	-0.00277020917262543	-0.247346254146342	0.003325480759341866	-0.2517186564632796	0.01863077123103699	-0.02102529023712533	-0.1999137902932094	0.135488053998374	0.04428277820003879	0.2268246234763063	4.560914700169659	-22.7541087588857	6.336117572421933	-5.033558938062521	-611.6863434699717	-59.79457266314222	-28.11304840950667	0.6497226981749519	0.6812631190584257	-0.2832536667495328	-1.579880216321718	0.5853246327907757	-0.3034287008878991	1.797681287274323	-1.119949659824456	-1.119949659824286	0.02994552615600722	-0.02842747442300031	-0.1350407070421413	0.5665266917914493	2.719348841521376e-07	7.363215705504545e-07	-1.349299209714593e-06	-8.214805493033246e-08	3.489382058440897e-07	-2.513288094406874e-08	2.966013973742739e-07
1.51	-0.4391275106666821	-0.07006250770472112	0.7678613190375814	1.241664019416847	-0.3093310634890375	-0.05088007328211185	-0.3401396100641529	0.6746030394310687	0.6746030394310668	-0.1730760370676943	0.1741683111010938	0.03758155642969152	-0.04837014412801228	0.7318517928114994	0.2641199912042261	0.483842827679429	-2.341157752027378	0.03705913820881444	-0.6132341913261415	0.5814158614961918	-1.764347814325721	-1.764347814325809	0.005647484118312348	-0.002807336771536777	-0.2486083320736287	0.008771475521322682	-0.2437154497046781	0.01792075758228982	-0.02089554162236643	-0.1986072779289184	0.1357447806607032	0.04360724241407443	0.2206223246698134	4.879347563271057	-22.62016296869539	6.433195022136673	-5.068769008666234	-607.2475366086978	-60.07085568576787	-29.12312848404115	0.6088509176809964	0.6678737417787328	-0.3402742227389045	-1.420194378048755	0.5553445232209965	-0.2609001625689378	1.734807912493289	-0.97934373822526	-0.9793437382186349	-0.03817591028623939	0.006638731433337687	-0.1139277170988468	0.5343339141802866	1.670164759134886e-07	9.892116658211337e-07	-8.477052146589477e-07	3.111565178399628e-08	2.872064376080215e-07	5.016503605987379e-08	2.467743509339193e-07
1.52	-0.4317798764230508	-0.06738821949367019	0.7726817526057044	1.218185113735031	-0.308932135055274	-0.05702407281670951	-0.334239099053055	0.656913124524834	0.6569131245248365	-0.1730208501073438	0.1741397233986195	0.03509047373679493	-0.0482550866481562	0.7375745153166127	0.2707110746814742	0.4801468932630679	-2.354306442134487	0.0427305775556163	-0.6154627574513197	0.59861454626998	-1.773391105613418	-1.773391105613461	0.005362791063419898	-0.002924699008106554	-0.2495558652619917	0.01424539211445915	-0.2357122429460758	0.0172107439335436	-0.02076579300760869	-0.197300765564627	0.1360015073230326	0.042931706628111	0.2144200258633212	5.19055948296823	-22.4875832127561	6.533495017121325	-5.095201550336827	-602.9275582818433	-60.4072875097423	-30.11589847485901	0.5292364725725838	0.6495146715051929	-0.3992362368943255	-1.199350664092342	0.5896591326370171	-0.1781013501100462	1.71152794317476	-0.8274298598516071	-0.8274298598516072	-0.001255771485012058	-0.04447440195468799	-0.07213175925739099	0.5721110580225813	1.020800835968339e-07	1.164336449291211e-06	-5.461081374546785e-07	1.010392434901798e-07	2.554175434304199e-07	1.034825380083948e-07	2.180928844537596e-07
1.53	-0.42437804535577	-0.0646489137970911	0.7774623562008666	1.194584364061502	-0.3084763635635491	-0.06318782481039298	-0.3281690137964861	0.6391402725157664	0.639140272515767	-0.1729688478884812	0.1741099909326904	0.03259150165510671	-0.04808512037772271	0.7426846376941652	0.2771125184171894	0.4758791391442478	-2.365504392687483	0.04842785399799417	-0.6172010376004824	0.6153081638124881	-1.780918913090146	-1.780918913090163	0.005032495885446931	-0.003024419176260978	-0.2501858177588793	0.01975353590939736	-0.2275731134331762	0.01631481836513507	-0.02066098966855233	-0.1959506939905908	0.1361446512776086	0.04217150533377056	0.2080405756965386	5.465236254833613	-22.3124230120399	6.627676627719972	-5.029154520586978	-598.5364261679769	-60.69072996781295	-31.08703841506172	0.4858564649930426	0.6298548311127385	-0.4546969018341155	-1.029132744902329	0.560268840035458	-0.1584834652412511	1.634127475088145	-0.6764404354431668	-0.6764404354392122	-0.04948276210362312	0.007028103784401307	-0.05050237701051902	0.5408593336812679	7.962458319729761e-08	1.256835588973151e-06	-4.570077854674941e-07	1.249139630002097e-07	2.554429529399387e-07	1.334458489605308e-07	2.118785966813066e-07
1.54	-0.4169283217957845	-0.06184671454185325	0.782197451874349	1.170881811783644	-0.3079635179194011	-0.06936631802915227	-0.3219348226014321	0.6212999455831595	0.6212999455831584	-0.1729202618956281	0.1740792110506866	0.03008781497202838	-0.04785993401064947	0.7471530138575765	0.2832897864132274	0.4710453089270968	-2.374666963000442	0.05414540804026338	-0.6184110024665204	0.6314357339669689	-1.786886090321264	-1.786886090321254	0.004679545861466736	-0.003134182223206578	-0.25049878554001	0.02528941144240878	-0.2194339839202761	0.01541889279672707	-0.02055618632949379	-0.1946006224165548	0.1362877952321848	0.0414113040394307	0.2016611255297564	5.732045899202144	-22.13814999946937	6.724586609390986	-4.947983207433468	-594.2707084069946	-61.03125950411929	-32.03223702144111	0.4008872297443727	0.6046795235697644	-0.5124514565605121	-0.7922746160849878	0.5937146526152832	-0.07243829348515035	1.598318465569323	-0.5153038107295599	-0.5153038107295552	-0.005786740686457858	-0.04648297771292408	-0.008734816105995951	0.5776574056372283	6.280704057426182e-08	1.341666062781834e-06	-3.996271501448213e-07	1.429886077371052e-07	2.596353727582098e-07	1.615301781521806e-07	2.093448788597551e-07
1.55	-0.4094371610445962	-0.05898391747021682	0.7868814339771298	1.147097842005039	-0.3073935019690996	-0.0755544711958416	-0.3155424169247863	0.6034078247436656	0.6034078247436671	-0.1728753565046482	0.1740474829756003	0.02758260154966701	-0.04757934768399381	0.7509631904178226	0.2892257655968374	0.4656610662277524	-2.381772955786104	0.05985367206414165	-0.6191290722311283	0.6469321582064177	-1.79126718723749	-1.791267187237516	0.004292122241120289	-0.003213510561593609	-0.2504878801884385	0.0308260896616693	-0.2110811843033176	0.01429747824554435	-0.02052156340373861	-0.1935250742181723	0.1368826995910576	0.04044149574230435	0.1950879057309428	6.135592378979262	-21.89892131631556	6.813579448251431	-4.948055858273166	-590.0486365374417	-61.28469038472045	-32.94706456923321	0.3537033618355478	0.5815099100627443	-0.5648627617537315	-0.6166394657239714	0.5586241432261315	-0.05768296935314989	1.508317929762905	-0.3589214810904325	-0.358921481095622	-0.05639824829092189	0.0111728072128447	0.01442089218944684	0.5412218423090049	5.248540582415009e-08	1.417660899823503e-06	-3.787931448921272e-07	1.543805576266943e-07	2.686289131496083e-07	1.874495935763139e-07	2.110518177207639e-07
1.56	-0.4019113744292713	-0.05606307004788306	0.7915088832358909	1.123253436727393	-0.3067665550053689	-0.08174704339045778	-0.3089984443004199	0.5854800111652051	0.5854800111652088	-0.172834560964988	0.1740149277309537	0.0250791807171015	-0.04724348481269784	0.7540781866849013	0.294899856552693	0.4597387401231146	-2.38675406280845	0.06553161072610107	-0.6192948080519182	0.6617491235110765	-1.794024638114566	-1.794024638114626	0.003857575597486648	-0.003299616135403134	-0.2501402675808378	0.03634472037047158	-0.2027283846863584	0.01317606369436227	-0.02048694047798129	-0.19244952601979	0.1374776039499306	0.03947168744517868	0.1885146859321296	6.530832258003567	-21.66025879143354	6.904970685221887	-4.928194959199105	-585.9555419523296	-61.59576200651298	-33.82718661073438	0.2618511711109037	0.5523018780188934	-0.6200681376192186	-0.3672974634215969	0.5876495802315126	0.03802849527842862	1.462426678611349	-0.1905746028993316	-0.1905746028993233	-0.01521134534389753	-0.04783842479742293	0.05860663509984887	0.5740479035455831	4.256461575443313e-08	1.483567208331898e-06	-3.617823531831027e-07	1.636836735251383e-07	2.778567873952543e-07	2.121268399752814e-07	2.120098792194556e-07
1.57	-0.394357947406856	-0.05308689872568981	0.7960744663683599	1.099369957821435	-0.3060830566737103	-0.08793863808979749	-0.3023099955782734	0.5675328171036687	0.567532817103672	-0.1727983610969249	0.1739815797085426	0.02258086778323312	-0.04685260404731796	0.756483955607625	0.3002789384119287	0.4532918210911603	-2.389565680424222	0.07115626159289054	-0.6189288187260401	0.675800289441334	-1.79513095818501	-1.795130958184928	0.003371361079829715	-0.003373362559867467	-0.2494700254179394	0.04182160660183071	-0.1942461861512758	0.01184224882413072	-0.02050356558732699	-0.191447565425296	0.1381362593611168	0.03839085803280697	0.1817819132892931	6.939500861661383	-21.37643791641689	6.989969682845504	-4.853658573620985	-581.8917986228923	-61.85413227436407	-34.66823400335097	0.2114594724939151	0.5224257645297075	-0.6698550060616378	-0.1816747640709312	0.547941265401972	0.05040839107180783	1.355411828697636	-0.02822071685756479	-0.02822071683632569	-0.06673139733638611	0.01249422727799	0.07909105895255183	0.5328290344442829	3.314488153520963e-08	1.536862856173702e-06	-3.495505784036652e-07	1.703757469346511e-07	2.873775789587099e-07	2.352513750927916e-07	2.12031844015251e-07
